<?xml version="1.0" encoding="UTF-8"?>
<!DOCTYPE svg PUBLIC "-//W3C//DTD SVG 1.1//EN" "http://www.w3.org/Graphics/SVG/1.1/DTD/svg11.dtd">
<!-- Creator: CorelDRAW 2020 (64-Bit) -->
<svg xmlns="http://www.w3.org/2000/svg" xml:space="preserve" width="4.2332mm" height="4.2332mm" version="1.1" style="shape-rendering:geometricPrecision; text-rendering:geometricPrecision; image-rendering:optimizeQuality; fill-rule:evenodd; clip-rule:evenodd"
viewBox="0 0 423.32 423.32"
 xmlns:xlink="http://www.w3.org/1999/xlink"
 xmlns:xodm="http://www.corel.com/coreldraw/odm/2003">
 <defs>
  <style type="text/css">
   <![CDATA[
    .fil1 {fill:#85846F}
    .fil0 {fill:#FAFDD8}
   ]]>
  </style>
 </defs>
 <g id="Layer_x0020_1">
  <metadata id="CorelCorpID_0Corel-Layer"/>
  <g id="_1608526574480">
   <path class="fil0" d="M253.42 317.46c0.4,-22.86 6.52,-48.7 19.46,-60.45 3.42,-3.1 5.1,-5.58 10.42,-9.87 3.57,-2.88 7.2,-5.67 11.53,-8.25 8.91,-5.31 18.2,-9.19 30.72,-9.34 -1.78,23.02 -14.72,42.85 -25.23,55.33 -5.68,6.74 -12.85,13.76 -20.72,19.35 -4.82,3.43 -18.71,12.47 -26.18,13.23zm-154.21 -87.93c7.62,-0.79 24.93,6.53 30.66,9.52 17.8,9.27 29.8,25.95 37.08,44.02 5.77,14.28 5.46,20.92 3.13,34.52 -5.89,-1.92 -21.72,-10.91 -26.2,-14.03 -6.89,-4.8 -5.57,-4.49 -10.65,-9.11l-9.26 -10.52c-12.48,-15.84 -24.87,-32 -24.76,-54.4zm112.53 69.77c-2.13,-2.19 -4.51,-15.04 -5.44,-19.04 -4.57,-19.62 -11.4,-32.98 -27.77,-44.71 -22.75,-16.3 -62.73,-25.08 -75.88,-44.81 -3.6,-5.39 -0.84,-14.03 1.14,-19.4 5.08,-13.8 12.23,-24.39 20.88,-33.36 7.48,-7.76 12.76,-13.3 22.46,-19.62 5.39,-3.5 25.02,-14.78 32.41,-15.76l0.45 77.8c3.24,0.98 26.22,0.47 31.7,0.51l0.05 118.39zm28.16 -198.2c19.12,2.85 35.19,14.56 48.62,25.72 7.76,6.45 26.17,28.66 29.63,43.87 4.79,-2.05 5.79,-7.31 7.57,-13.44 1.52,-5.24 3.12,-10.44 4.67,-15.59l8.27 -27.7c0.17,-0.59 0.36,-1.32 0.59,-1.95l0.91 -1.86c2.94,27.86 -5.69,58.62 -20.54,81.55 -1.62,2.51 -4.67,6.47 -6.44,8.27 -13.94,14.21 -14.39,15.41 -35.33,23.5 -15.8,6.09 -16.92,5.96 -28.87,15.25 -2.42,1.89 -5.94,4.64 -8.87,6.02l-0.21 -140.51 0 -3.13zm-40.21 -57.28c-24.29,1.81 -47.2,8.42 -65.79,18.28 -17.82,9.46 -29.03,17.98 -42.2,31.32 -0.99,1 -1.62,1.38 -2.69,2.38 -5.13,4.79 -17.1,21.01 -20.68,26.99 -18.28,30.48 -27.53,62.78 -24.91,100.68 2.5,36.23 17.75,70.5 39.36,97l27.37 25.37c31.82,23.82 72.83,36.25 114.05,33.21 37.46,-2.76 69.52,-16.89 96.53,-39.36 12.21,-10.15 26.24,-26.38 34.24,-39.78 5.35,-8.98 9.87,-17.36 14.04,-28.06 8.43,-21.6 12.54,-47.05 10.76,-72.41 -6.2,-88.2 -83.51,-162.81 -180.08,-155.62z"/>
   <path class="fil1" d="M199.69 43.82c96.57,-7.19 173.88,67.42 180.08,155.62 1.78,25.36 -2.33,50.81 -10.76,72.41 -4.17,10.7 -8.69,19.08 -14.04,28.06 -8,13.4 -22.03,29.63 -34.24,39.78 -27.01,22.47 -59.07,36.6 -96.53,39.36 -41.22,3.04 -82.23,-9.39 -114.05,-33.21l-27.37 -25.37c-21.61,-26.5 -36.86,-60.77 -39.36,-97 -2.62,-37.9 6.63,-70.2 24.91,-100.68 3.58,-5.98 15.55,-22.2 20.68,-26.99 1.07,-1 1.7,-1.38 2.69,-2.38 13.17,-13.34 24.38,-21.86 42.2,-31.32 18.59,-9.86 41.5,-16.47 65.79,-18.28zm-199.7 160.2c0,24.94 0.16,35.51 6.3,60.07 6.95,27.8 21.09,55.61 38.66,77.92l25.21 27.01c26.76,24.71 59.22,40.2 94.49,49.06 7.5,1.88 26.24,4.76 34.3,4.77l12.68 0.47c21.57,-1.9 22.91,-0.45 46.35,-5.42 23.86,-5.06 44.67,-14.23 65.01,-26.3l8.03 -5.16c10.03,-7.43 13.21,-10.34 21.83,-17.22l22.12 -23 8.62 -11.16c9.35,-12.48 17.17,-27.13 23.35,-41.53 1.39,-3.23 2.63,-6.01 3.76,-9.42 2.29,-6.89 4.35,-12.6 6.23,-20.12 6.14,-24.63 6.4,-34.86 6.4,-59.97 0,-14.49 -3.12,-31.7 -6.5,-45.19 -4.17,-16.63 -10.18,-31.73 -18.21,-46.66 -7.33,-13.64 -21.07,-34.26 -32.52,-45.55 -17.34,-17.11 -28.85,-27.42 -51.05,-39.73 -17.24,-9.55 -36.4,-17.28 -56.56,-21.56 -9.98,-2.12 -23.6,-4.37 -34.14,-4.94 -2.07,-0.11 -4.51,0 -6.61,0.01 -6.75,0.03 -1.3,-0.9 -11.69,-0.04 -1.98,0.17 -4.55,0.03 -6.58,0.02 -15.14,-0.07 -40.79,5.37 -54.88,10.08 -8.44,2.81 -11.18,4.14 -19.01,7.37l-8.68 4c-6.81,3.42 -19.13,10.7 -24.52,14.53l-18.35 14.1c-1.33,1.07 -2.11,1.89 -3.56,3.04l-19.28 19.75c-1.03,1.29 -1.73,2.03 -2.76,3.33 -7.04,8.94 -13.1,16.46 -18.84,26.79 -0.85,1.53 -1.58,2.59 -2.48,4.11l-6.81 12.96c-5.56,12.5 -10.31,24.42 -13.71,37.99 -3.46,13.81 -6.6,30.99 -6.6,45.59z"/>
   <path class="fil1" d="M211.74 299.3l-0.05 -118.39c-5.48,-0.04 -28.46,0.47 -31.7,-0.51l-0.45 -77.8c-7.39,0.98 -27.02,12.26 -32.41,15.76 -9.7,6.32 -14.98,11.86 -22.46,19.62 -8.65,8.97 -15.8,19.56 -20.88,33.36 -1.98,5.37 -4.74,14.01 -1.14,19.4 13.15,19.73 53.13,28.51 75.88,44.81 16.37,11.73 23.2,25.09 27.77,44.71 0.93,4 3.31,16.85 5.44,19.04z"/>
   <path class="fil1" d="M239.9 104.23l0.21 140.51c2.93,-1.38 6.45,-4.13 8.87,-6.02 11.95,-9.29 13.07,-9.16 28.87,-15.25 20.94,-8.09 21.39,-9.29 35.33,-23.5 1.77,-1.8 4.82,-5.76 6.44,-8.27 14.85,-22.93 23.48,-53.69 20.54,-81.55l-0.91 1.86c-0.23,0.63 -0.42,1.36 -0.59,1.95l-8.27 27.7c-1.55,5.15 -3.15,10.35 -4.67,15.59 -1.78,6.13 -2.78,11.39 -7.57,13.44 -3.46,-15.21 -21.87,-37.42 -29.63,-43.87 -13.43,-11.16 -29.5,-22.87 -48.62,-25.72l0 3.13z"/>
   <path class="fil1" d="M170.08 317.59c2.33,-13.6 2.64,-20.24 -3.13,-34.52 -7.28,-18.07 -19.28,-34.75 -37.08,-44.02 -5.73,-2.99 -23.04,-10.31 -30.66,-9.52 -0.11,22.4 12.28,38.56 24.76,54.4l9.26 10.52c5.08,4.62 3.76,4.31 10.65,9.11 4.48,3.12 20.31,12.11 26.2,14.03z"/>
   <path class="fil1" d="M253.42 317.46c7.47,-0.76 21.36,-9.8 26.18,-13.23 7.87,-5.59 15.04,-12.61 20.72,-19.35 10.51,-12.48 23.45,-32.31 25.23,-55.33 -12.52,0.15 -21.81,4.03 -30.72,9.34 -4.33,2.58 -7.96,5.37 -11.53,8.25 -5.32,4.29 -7,6.77 -10.42,9.87 -12.94,11.75 -19.06,37.59 -19.46,60.45z"/>
  </g>
 </g>
</svg>
